<?xml version="1.0" encoding="iso-8859-1"?>
<!-- Generator: Adobe Illustrator 19.0.0, SVG Export Plug-In . SVG Version: 6.00 Build 0)  -->
<svg version="1.1" id="Layer_1" xmlns="http://www.w3.org/2000/svg" xmlns:xlink="http://www.w3.org/1999/xlink" x="0px" y="0px"
	 viewBox="0 0 512.535 512.535" style="enable-background:new 0 0 512.535 512.535;" xml:space="preserve">
<g transform="translate(1 1)">
	<g>
		<g>
			<path d="M35.961,206.895c-3.413,3.413-3.413,8.533,0,11.947c3.413,3.413,8.533,3.413,11.947,0c3.413-3.413,3.413-8.533,0-11.947
				S39.374,203.481,35.961,206.895z"/>
			<path d="M47.907,287.108c3.413-3.413,3.413-8.533,0-11.947s-8.533-3.413-11.947,0c-3.413,3.413-3.413,8.533,0,11.947
				C39.374,290.521,44.494,290.521,47.907,287.108z"/>
			<path d="M474.574,287.108c3.413-3.413,3.413-8.533,0-11.947s-8.533-3.413-11.947,0c-3.413,3.413-3.413,8.533,0,11.947
				C466.041,290.521,471.161,290.521,474.574,287.108z"/>
			<path d="M462.627,206.895c-3.413,3.413-3.413,8.533,0,11.947c3.413,3.413,8.533,3.413,11.947,0c3.413-3.413,3.413-8.533,0-11.947
				S466.041,203.481,462.627,206.895z"/>
			<path d="M502.734,119.001h-68.267c-5.12,0-8.533,3.413-8.533,8.533v42.667h-59.192l32.738-29.867
				c11.947-10.24,18.773-24.747,18.773-40.96c0-9.525-2.302-19.048-6.692-27.556l51.919-21.938
				c4.267-1.707,5.973-6.827,4.267-11.093c-1.707-4.267-6.827-5.973-11.093-4.267l-33.988,14.361l26.308-26.308
				c3.413-3.413,3.413-8.533,0-11.947c-3.413-3.413-8.533-3.413-11.947,0l-29.201,29.201l9.574-29.201
				c1.707-5.12-0.853-9.387-5.12-11.093c-5.12-1.707-9.387,0.853-11.093,5.12l-13.99,42.668c-8.575-4.481-18.199-6.828-27.824-6.828
				c-15.36,0.853-29.867,6.827-40.96,18.773l-21.535,23.3c-0.223,0.185-0.441,0.382-0.651,0.593
				c-0.379,0.379-0.708,0.781-1.003,1.197l-62.515,67.639c-9.336-21.75-29.677-37.751-53.911-40.931
				c1.382-16.349,6.721-25.458,8.203-26.199c5.12,0,8.533-3.413,8.533-8.533s-3.413-8.533-8.533-8.533
				c-10.002,0-16.811,8.245-20.878,19.831c-5.382-6.117-12.641-11.298-21.789-11.298c-5.12,0-8.533,3.413-8.533,8.533
				c0,5.12,3.413,8.533,8.533,8.533c6.728,0,13.455,10.477,16.741,17.665c-30.604,4.014-54.983,28.488-58.851,59.135H84.601v-42.667
				c0-5.12-3.413-8.533-8.533-8.533H7.801c-5.12,0-8.533,3.413-8.533,8.533v51.2v68.267v68.267c0,5.12,3.413,8.533,8.533,8.533h76.8
				v42.667c0,5.12,3.413,8.533,8.533,8.533h95.253l-77.333,123.733c-1.707,2.56-1.707,5.973,0,8.533s4.267,4.267,7.68,4.267h51.2
				c2.56,0,5.973-1.707,6.827-4.267l78.507-125.611l78.507,125.611c0.853,2.56,4.267,4.267,6.827,4.267h51.2
				c3.413,0,5.973-1.707,7.68-4.267c1.707-2.56,1.707-5.973,0-8.533l-77.333-123.733h95.253c5.12,0,8.533-3.413,8.533-8.533v-42.667
				h76.8c5.12,0,8.533-3.413,8.533-8.533v-68.267v-68.267v-51.2C511.267,122.415,507.854,119.001,502.734,119.001z M16.334,187.268
				h59.733h34.133h110.933h8.533h116.907h87.893h59.733v51.2H16.334V187.268z M443.001,136.068h51.2v34.133h-51.2V136.068z
				 M302.681,101.561l14.88,14.88c1.707,1.707,3.413,2.56,5.973,2.56s4.267-0.853,5.973-2.56c3.413-3.413,3.413-8.533,0-11.947
				l-15.413-15.413l17.12-18.72c7.68-7.68,17.92-12.8,29.013-12.8c11.093,0,22.186,4.266,29.866,11.946c0,0,0,0,0,0s0,0,0,0
				c0.646,0.717,1.258,1.451,1.855,2.192c0.433,1.281,1.242,2.297,2.276,3.047c5.06,7.365,7.816,15.72,7.816,24.628
				c0,11.093-4.267,21.333-12.8,29.013l-32.211,29.229l-10.455-10.455c-3.413-3.413-8.533-3.413-11.947,0
				c-3.413,3.413-3.413,8.533,0,11.947l9.875,9.875l-1.342,1.218H239.907L302.681,101.561z M169.934,127.535
				c24.21,0,43.832,16.793,49.501,38.825l-3.55,3.841h-96.297C123.854,146.308,144.334,127.535,169.934,127.535z M16.334,136.068
				h51.2v34.133h-51.2V136.068z M164.814,494.468h-30.72l75.093-119.467h30.72L164.814,494.468z M376.441,494.468h-30.72
				l-75.093-119.467h30.72L376.441,494.468z M408.867,357.935H307.321h-51.2h-1.707h-51.2H101.667v-34.133h307.2V357.935z
				 M494.201,306.735h-76.8H93.134h-76.8v-51.2h477.867V306.735z"/>
		</g>
	</g>
</g>
<g>
</g>
<g>
</g>
<g>
</g>
<g>
</g>
<g>
</g>
<g>
</g>
<g>
</g>
<g>
</g>
<g>
</g>
<g>
</g>
<g>
</g>
<g>
</g>
<g>
</g>
<g>
</g>
<g>
</g>
</svg>
