<?xml version="1.0" encoding="iso-8859-1"?>
<!-- Generator: Adobe Illustrator 19.0.0, SVG Export Plug-In . SVG Version: 6.00 Build 0)  -->
<svg version="1.1" id="Layer_1" xmlns="http://www.w3.org/2000/svg" xmlns:xlink="http://www.w3.org/1999/xlink" x="0px" y="0px"
	 viewBox="0 0 512.001 512.001" style="enable-background:new 0 0 512.001 512.001;" xml:space="preserve">
<g>
	<g>
		<path d="M378.528,498.411l-36.123-36.124c-1.42-1.419-3.321-2.251-5.326-2.332l-37.528-1.501
			c-4.421-0.154-8.119,3.251-8.295,7.656s3.252,8.118,7.656,8.295l34.409,1.376l33.916,33.917c3.247,3.246,8.728,3.028,11.714-0.458
			C381.626,506.117,381.433,501.316,378.528,498.411z"/>
	</g>
</g>
<g>
	<g>
		<path d="M432.712,444.226l-65.871-65.871c-5.747-5.746-12.495-10.171-19.894-13.12c-8.003-50.425-50.224-88.772-100.777-92.458
			v-33.963l36.523-36.523c4.979,1.003,10.003,1.5,15.003,1.5c19.961,0,39.5-7.839,53.916-22.254
			c19.135-19.136,26.681-47.295,19.69-73.489c-0.736-2.761-2.893-4.918-5.655-5.655c-26.195-6.99-54.353,0.556-73.489,19.69
			c-18.027,18.027-25.762,44.061-20.755,68.918l-25.235,25.235v-85.867c21.117-14.035,34.057-37.913,34.057-63.408
			c0-27.062-14.576-52.309-38.041-65.888c-2.473-1.431-5.523-1.431-7.997,0c-23.464,13.579-38.041,38.825-38.041,65.888
			c0,25.495,12.941,49.374,34.057,63.408v85.867l-25.235-25.235c5.009-24.856-2.728-50.891-20.755-68.918
			c-19.135-19.136-47.297-26.678-73.489-19.69c-2.762,0.737-4.917,2.894-5.655,5.655c-6.99,26.193,0.555,54.353,19.69,73.489
			c14.417,14.417,33.954,22.254,53.916,22.254c4.999,0,10.024-0.496,15.003-1.5l36.523,36.523v33.958
			c-22.694,1.657-44.488,10.317-62.089,24.844c-3.399,2.805-3.88,7.837-1.075,11.237c2.808,3.4,7.836,3.881,11.238,1.075
			c16.805-13.868,38.081-21.505,59.912-21.505c43.885,0,81.82,30.624,91.689,72.563c-35.263-6.181-105.08-20.11-105.817-20.258
			c-0.496-0.099-0.998-0.15-1.503-0.154c-0.066,0-0.129,0-0.194,0c-6.608,0-12.834,2.55-17.546,7.193
			c-4.759,4.688-7.407,10.949-7.458,17.63c-0.051,6.825,2.825,19.135,22.661,24.883c10.436,3.024,21.46,6.443,29.597,9.016
			l-6.765,6.766l-60.641,5.512c-6.027-3.828-22.867-14.525-38.083-24.181c-0.079-1.586-0.129-3.186-0.129-4.78
			c0-18.967,5.61-37.249,16.225-52.869c2.478-3.646,1.53-8.61-2.115-11.088c-3.647-2.479-8.611-1.53-11.089,2.116
			c-11.421,16.806-17.876,36.242-18.843,56.506c-4.039-2.56-7.388-4.68-9.578-6.061c-12.397-7.826-24.906-7.847-33.459-0.062
			c-5.117,4.656-8.024,11.022-8.185,17.923c-0.086,3.658,0.652,7.324,2.125,10.672c1.389,3.156,3.613,6.858,6.607,8.728
			l96.328,60.204c1.176,0.735,2.524,1.152,3.911,1.207l79.648,3.186c0.11,0.004,0.216,0.006,0.325,0.006
			c4.261,0,7.799-3.367,7.97-7.663c0.176-4.405-3.253-8.118-7.656-8.295l-77.532-3.101l-93.641-58.526
			c-3.113-3.676-2.703-9.306,0.847-12.535c4.063-3.701,10.636-0.487,14.192,1.755c12.827,8.095,65.338,41.455,65.867,41.791
			c1.487,0.945,3.245,1.373,5.002,1.212l66.226-6.021c1.86-0.169,3.602-0.984,4.921-2.305l18.063-18.061
			c4.138-4.139,2.389-11.414-3.163-13.23c-0.221-0.072-22.43-7.331-42.532-13.155c-7.423-2.151-11.171-5.324-11.14-9.43
			c0.034-4.682,3.794-8.67,8.472-8.96c8.604,1.714,79.033,15.711,110.463,21.042c8.859,1.503,16.915,5.668,23.294,12.048
			l65.87,65.871c3.117,3.117,8.17,3.118,11.289,0C435.829,452.398,435.829,447.343,432.712,444.226z M340.323,170.247
			c-11.52,11.521-27.186,17.71-43.15,17.565l60.716-60.716C358.033,143.06,351.845,158.726,340.323,170.247z M303.45,133.371
			c11.52-11.521,27.185-17.709,43.15-17.564l-60.715,60.715C285.74,160.557,291.928,144.892,303.45,133.371z M246.171,24.029
			c11.39,11.188,18.093,26.64,18.093,42.932c0,16.293-6.702,31.746-18.093,42.932V24.029z M136.054,170.247
			c-11.522-11.521-17.71-27.186-17.565-43.151l60.714,60.714C163.238,187.953,147.574,181.768,136.054,170.247z M129.778,115.808
			c15.965-0.144,31.63,6.042,43.15,17.563s17.709,27.186,17.564,43.151L129.778,115.808z M230.207,109.894
			c-11.391-11.187-18.093-26.639-18.093-42.932s6.702-31.744,18.093-42.932V109.894z"/>
	</g>
</g>
<g>
</g>
<g>
</g>
<g>
</g>
<g>
</g>
<g>
</g>
<g>
</g>
<g>
</g>
<g>
</g>
<g>
</g>
<g>
</g>
<g>
</g>
<g>
</g>
<g>
</g>
<g>
</g>
<g>
</g>
</svg>
